<svg xmlns="http://www.w3.org/2000/svg" width="74.438" height="86.66" viewBox="0 0 74.438 86.66">
  <metadata><?xpacket begin="﻿" id="W5M0MpCehiHzreSzNTczkc9d"?>
<x:xmpmeta xmlns:x="adobe:ns:meta/" x:xmptk="Adobe XMP Core 5.6-c138 79.159824, 2016/09/14-01:09:01        ">
   <rdf:RDF xmlns:rdf="http://www.w3.org/1999/02/22-rdf-syntax-ns#">
      <rdf:Description rdf:about=""/>
   </rdf:RDF>
</x:xmpmeta>
                                                                                                    
                                                                                                    
                                                                                                    
                                                                                                    
                                                                                                    
                                                                                                    
                                                                                                    
                                                                                                    
                                                                                                    
                                                                                                    
                                                                                                    
                                                                                                    
                                                                                                    
                                                                                                    
                                                                                                    
                                                                                                    
                                                                                                    
                                                                                                    
                                                                                                    
                                                                                                    
                           
<?xpacket end="w"?></metadata>
<defs>
    <style>
      .cls-1 {
        fill: #fff;
        fill-rule: evenodd;
      }
    </style>
  </defs>
  <path id="Forma_7" data-name="Forma 7" class="cls-1" d="M982.116,2039.65a17.374,17.374,0,0,0-9.3-6.72l-16.355-4.76v-6.74c0.31-.29.61-0.58,0.9-0.9a20.142,20.142,0,0,0,4.883-9.93l0.149-.8a20.822,20.822,0,0,0,.32-3.62v-7.85a17.27,17.27,0,0,0-30.243-11.45,17.874,17.874,0,0,0-4.323,11.89v7.28a20.621,20.621,0,0,0,.329,3.67l0.14,0.77a22.378,22.378,0,0,0,4.842,10.52l0.779,1v6.75l-16.294,4.65a17.26,17.26,0,0,0-8.787,5.94s-0.011.01-.016,0.01l-0.021.02a2.891,2.891,0,0,0,0,4.08l23.367,23.46a2.888,2.888,0,0,0,4.074-4.08l-21.412-21.5a11.334,11.334,0,0,1,4.355-2.37l20.488-5.84v-13.18l-2.087-2.62-0.119-.14a16.929,16.929,0,0,1-3.5-7.78l-0.14-.77a14.517,14.517,0,0,1-.239-2.57v-7.35a12.031,12.031,0,0,1,3.155-8.31,11.52,11.52,0,0,1,19.9,7.92v7.86a14,14,0,0,1-.23,2.58l-0.14.8c-0.685,3.74-2.82,8.01-5.874,10.16v5.53h0v7.27l20.5,6.02a11.516,11.516,0,0,1,4.71,2.73l-17.474,17.55a2.586,2.586,0,0,1-3.672,0l-16.382-16.44a2.872,2.872,0,0,0-4.067-.03,0.039,0.039,0,0,1-.021.02,2.9,2.9,0,0,0,0,4.09l20.39,20.45c0.032,0.03.07,0.05,0.1,0.08a2.517,2.517,0,0,0,.233.17c0.081,0.05.161,0.1,0.246,0.15a2.4,2.4,0,0,0,.25.11,2.843,2.843,0,0,0,.27.1l0.262,0.06a1.332,1.332,0,0,0,.279.04,3.759,3.759,0,0,0,.548,0,1.332,1.332,0,0,0,.279-0.04l0.262-.06a2.654,2.654,0,0,0,.27-0.1,2.4,2.4,0,0,0,.25-0.11c0.085-.05.165-0.1,0.246-0.15a2.517,2.517,0,0,0,.233-0.17c0.033-.03.071-0.05,0.1-0.08l23.364-23.45A2.9,2.9,0,0,0,982.116,2039.65Z" transform="translate(-908.281 -1981)"/>
</svg>
