<svg xmlns="http://www.w3.org/2000/svg" width="22" height="22" viewBox="0 0 22 22">
  <metadata><?xpacket begin="﻿" id="W5M0MpCehiHzreSzNTczkc9d"?>
<x:xmpmeta xmlns:x="adobe:ns:meta/" x:xmptk="Adobe XMP Core 5.6-c138 79.159824, 2016/09/14-01:09:01        ">
   <rdf:RDF xmlns:rdf="http://www.w3.org/1999/02/22-rdf-syntax-ns#">
      <rdf:Description rdf:about=""/>
   </rdf:RDF>
</x:xmpmeta>
                                                                                                    
                                                                                                    
                                                                                                    
                                                                                                    
                                                                                                    
                                                                                                    
                                                                                                    
                                                                                                    
                                                                                                    
                                                                                                    
                                                                                                    
                                                                                                    
                                                                                                    
                                                                                                    
                                                                                                    
                                                                                                    
                                                                                                    
                                                                                                    
                                                                                                    
                                                                                                    
                           
<?xpacket end="w"?></metadata>
<defs>
    <style>
      .cls-1 {
        fill: #fff;
        fill-rule: evenodd;
      }
    </style>
  </defs>
  <path id="add_news" data-name="add news" class="cls-1" d="M196.809,385.319a0.742,0.742,0,0,0-.745-0.738h-3.583v1.477h3.583A0.742,0.742,0,0,0,196.809,385.319Zm0-3.707a0.742,0.742,0,0,0-.745-0.738h-3.583v1.476h3.583A0.742,0.742,0,0,0,196.809,381.612Zm0-4a0.742,0.742,0,0,0-.745-0.738h-3.583v1.477h3.583A0.742,0.742,0,0,0,196.809,377.613Zm14.885-2.84H210.2v-1.48A1.3,1.3,0,0,0,208.9,372H192.3a1.3,1.3,0,0,0-1.3,1.293V391.04A2.973,2.973,0,0,0,193.974,394h16.041A2.972,2.972,0,0,0,213,391.04V376.066A1.3,1.3,0,0,0,211.694,374.773Zm-0.186,16.267a1.488,1.488,0,0,1-1.493,1.48H193.974a1.488,1.488,0,0,1-1.493-1.48v-1.6H191.74a0.739,0.739,0,1,1,0-1.477h0.741v-1.909H191.74a0.739,0.739,0,1,1,0-1.477h0.741V382.35H191.74a0.738,0.738,0,1,1,0-1.476h0.741v-2.522H191.74a0.739,0.739,0,1,1,0-1.477h0.741v-3.4h16.23v16.731a1.579,1.579,0,0,0,1.584,1.571,0.739,0.739,0,1,0,0-1.477,0.094,0.094,0,0,1-.094-0.094V376.25h1.307v14.79Zm-14.7-2.335a0.742,0.742,0,0,0-.745-0.738h-3.583v1.477h3.583A0.743,0.743,0,0,0,196.809,388.705Zm8.293-6.715h-1.951v-1.935a0.665,0.665,0,0,0-1.329,0v1.935h-1.951a0.659,0.659,0,1,0,0,1.318h1.951v1.934a0.665,0.665,0,0,0,1.329,0v-1.934H205.1A0.659,0.659,0,1,0,205.1,381.99Z" transform="translate(-191 -372)"/>
</svg>
