<svg xmlns="http://www.w3.org/2000/svg" width="21" height="21" viewBox="0 0 21 21">
  <metadata><?xpacket begin="﻿" id="W5M0MpCehiHzreSzNTczkc9d"?>
<x:xmpmeta xmlns:x="adobe:ns:meta/" x:xmptk="Adobe XMP Core 5.6-c138 79.159824, 2016/09/14-01:09:01        ">
   <rdf:RDF xmlns:rdf="http://www.w3.org/1999/02/22-rdf-syntax-ns#">
      <rdf:Description rdf:about=""/>
   </rdf:RDF>
</x:xmpmeta>
                                                                                                    
                                                                                                    
                                                                                                    
                                                                                                    
                                                                                                    
                                                                                                    
                                                                                                    
                                                                                                    
                                                                                                    
                                                                                                    
                                                                                                    
                                                                                                    
                                                                                                    
                                                                                                    
                                                                                                    
                                                                                                    
                                                                                                    
                                                                                                    
                                                                                                    
                                                                                                    
                           
<?xpacket end="w"?></metadata>
<defs>
    <style>
      .cls-1 {
        fill: #fff;
        fill-rule: evenodd;
      }
    </style>
  </defs>
  <path id="bank_management" data-name="bank management" class="cls-1" d="M217.5,424.4a1.75,1.75,0,1,0,1.75,1.75A1.75,1.75,0,0,0,217.5,424.4Zm0,2.8a1.05,1.05,0,1,1,1.05-1.05A1.05,1.05,0,0,1,217.5,427.2Zm9.1,4.9a0.35,0.35,0,0,0,.35-0.35V430.7h0.35a0.35,0.35,0,0,0,.35-0.35V429.3a0.35,0.35,0,0,0,.35-0.35v-2.8a0.349,0.349,0,0,0-.256-0.336l-10.15-2.8a0.335,0.335,0,0,0-.175,0l-10.15,2.8a0.352,0.352,0,0,0-.269.34v2.8a0.35,0.35,0,0,0,.35.35v1.05a0.35,0.35,0,0,0,.35.35h0.35v1.05a0.35,0.35,0,0,0,.35.35h0.7v8.75h-0.7a0.35,0.35,0,0,0-.35.35v1.05h-0.7a0.35,0.35,0,0,0-.35.35v1.05a0.35,0.35,0,0,0,.35.35h20.3a0.35,0.35,0,0,0,.35-0.35V442.6a0.35,0.35,0,0,0-.35-0.35h-0.7V441.2a0.35,0.35,0,0,0-.35-0.35h-0.7V432.1h0.7Zm-18.9-3.5v-2.174l9.793-2.716,9.807,2.706V428.6H207.7Zm0.35,1.4v-0.7h18.9V430h-5.586a6.555,6.555,0,0,0-4.228,0H208.05Zm17.15,6.3a5.95,5.95,0,1,1-5.95-5.95h0A5.959,5.959,0,0,1,225.2,436.3Zm-0.8-4.2h0.8v1.249A6.4,6.4,0,0,0,224.4,432.1Zm0.8,7.151v1.6h-1.113A6.7,6.7,0,0,0,225.2,439.251Zm-11.9,1.6h-0.7V432.1h0.7a0.35,0.35,0,0,0,.35-0.35V430.7h2.026a6.635,6.635,0,0,0,.623,11.55H213.65V441.2a0.35,0.35,0,0,0-.35-0.35h0Zm-4.55-9.45v-0.7h4.2v0.7h-4.2Zm3.15,0.7v8.75h-2.1V432.1h2.1Zm-3.15,9.45h4.2v0.7h-4.2v-0.7Zm18.55,1.4v0.35H207.7v-0.35h19.6Zm-1.05-1.4v0.7H222.2a6.561,6.561,0,0,0,1.117-.7h2.933Zm-2.52-10.15a6.682,6.682,0,0,0-.907-0.7h3.427v0.7h-2.52Zm-4.6,3.264a1.493,1.493,0,1,0,1.492,1.492A1.494,1.494,0,0,0,219.126,434.664Zm0,2.42a0.928,0.928,0,1,1,.927-0.928A0.929,0.929,0,0,1,219.126,437.084Zm3.664-1.966h-0.765a0.162,0.162,0,0,1-.114-0.277l0.54-.54a0.552,0.552,0,0,0,0-.781l-0.689-.689a0.563,0.563,0,0,0-.78,0l-0.54.54a0.157,0.157,0,0,1-.177.036,0.154,0.154,0,0,1-.1-0.15v-0.764a0.552,0.552,0,0,0-.552-0.552h-0.974a0.552,0.552,0,0,0-.552.552v0.764a0.162,0.162,0,0,1-.277.114l-0.54-.54a0.564,0.564,0,0,0-.781,0l-0.689.689a0.554,0.554,0,0,0,0,.781l0.541,0.54a0.162,0.162,0,0,1-.115.277h-0.764a0.552,0.552,0,0,0-.552.551v0.974a0.552,0.552,0,0,0,.552.552h0.764a0.162,0.162,0,0,1,.115.277l-0.541.54a0.554,0.554,0,0,0,0,.781l0.689,0.689a0.562,0.562,0,0,0,.781,0l0.54-.541a0.158,0.158,0,0,1,.177-0.035,0.155,0.155,0,0,1,.1.15v0.764a0.552,0.552,0,0,0,.552.552h0.974a0.552,0.552,0,0,0,.551-0.552v-0.764a0.154,0.154,0,0,1,.1-0.15,0.157,0.157,0,0,1,.176.035l0.54,0.541a0.564,0.564,0,0,0,.781,0l0.689-.689a0.554,0.554,0,0,0,0-.781l-0.54-.54a0.162,0.162,0,0,1,.114-0.277h0.765a0.551,0.551,0,0,0,.551-0.551v-0.975A0.551,0.551,0,0,0,222.79,435.118Zm-0.014,1.512h-0.751a0.727,0.727,0,0,0-.514,1.242l0.531,0.531-0.67.67-0.531-.531a0.719,0.719,0,0,0-.51-0.215,0.756,0.756,0,0,0-.283.057,0.717,0.717,0,0,0-.448.672v0.751h-0.948v-0.751a0.716,0.716,0,0,0-.449-0.672,0.729,0.729,0,0,0-.282-0.057,0.719,0.719,0,0,0-.511.215l-0.531.531-0.67-.67,0.531-.531a0.727,0.727,0,0,0-.514-1.242h-0.751v-0.947h0.751a0.727,0.727,0,0,0,.514-1.242l-0.531-.531,0.67-.67,0.531,0.531a0.722,0.722,0,0,0,.511.214,0.746,0.746,0,0,0,.282-0.056,0.716,0.716,0,0,0,.449-0.672v-0.751H219.6v0.751a0.717,0.717,0,0,0,.448.672,0.756,0.756,0,0,0,.283.057,0.72,0.72,0,0,0,.51-0.215l0.531-.531,0.67,0.67-0.531.531a0.727,0.727,0,0,0,.514,1.242h0.751v0.947Z" transform="translate(-207 -423)"/>
</svg>
