<svg xmlns="http://www.w3.org/2000/svg" width="22" height="21" viewBox="0 0 22 21">
  <metadata><?xpacket begin="﻿" id="W5M0MpCehiHzreSzNTczkc9d"?>
<x:xmpmeta xmlns:x="adobe:ns:meta/" x:xmptk="Adobe XMP Core 5.6-c138 79.159824, 2016/09/14-01:09:01        ">
   <rdf:RDF xmlns:rdf="http://www.w3.org/1999/02/22-rdf-syntax-ns#">
      <rdf:Description rdf:about=""/>
   </rdf:RDF>
</x:xmpmeta>
                                                                                                    
                                                                                                    
                                                                                                    
                                                                                                    
                                                                                                    
                                                                                                    
                                                                                                    
                                                                                                    
                                                                                                    
                                                                                                    
                                                                                                    
                                                                                                    
                                                                                                    
                                                                                                    
                                                                                                    
                                                                                                    
                                                                                                    
                                                                                                    
                                                                                                    
                                                                                                    
                           
<?xpacket end="w"?></metadata>
<defs>
    <style>
      .cls-1 {
        fill: #fff;
        fill-rule: evenodd;
      }
    </style>
  </defs>
  <path id="bulk-email" class="cls-1" d="M224.421,121a0.4,0.4,0,0,1-.287-0.121,0.422,0.422,0,0,1-.119-0.293L224,107.906a0.423,0.423,0,0,1,.175-0.342l3.284-2.322v-2.5a0.409,0.409,0,0,1,.4-0.413h3.714l3.191-2.257A0.405,0.405,0,0,1,235,100a0.4,0.4,0,0,1,.231.074l3.172,2.256h3.729a0.41,0.41,0,0,1,.405.413v2.526l3.268,2.323a0.422,0.422,0,0,1,.159.23l0.015,0.07,0.016,12.657a0.421,0.421,0,0,1-.118.294,0.4,0.4,0,0,1-.285.121L224.42,121h0Zm1.182-.829,18.767-.027L235,112.709Zm-0.78-.428,7.356-5.835-7.371-5.21Zm12.992-5.846,7.367,5.845-0.015-11.072Zm-9.549-3.761,4.583,3.24,1.907-1.512a0.389,0.389,0,0,1,.246-0.087,0.4,0.4,0,0,1,.244.083l1.9,1.506,4.579-3.256v-6.947H228.266v6.973Zm-3.153-2.228,2.344,1.657v-3.314Zm17.42,1.627,2.288-1.627-2.288-1.626v3.253Zm-9.535-7.2h3.984L235,100.919Zm-1.874,4.337a0.414,0.414,0,0,1,0-.828h7.742a0.414,0.414,0,0,1,0,.828h-7.742Zm0,3.041a0.414,0.414,0,0,1,0-.827h7.742a0.414,0.414,0,0,1,0,.827h-7.742Z" transform="translate(-224 -100)"/>
</svg>
