<svg xmlns="http://www.w3.org/2000/svg" width="20" height="20" viewBox="0 0 20 20">
  <metadata><?xpacket begin="﻿" id="W5M0MpCehiHzreSzNTczkc9d"?>
<x:xmpmeta xmlns:x="adobe:ns:meta/" x:xmptk="Adobe XMP Core 5.6-c138 79.159824, 2016/09/14-01:09:01        ">
   <rdf:RDF xmlns:rdf="http://www.w3.org/1999/02/22-rdf-syntax-ns#">
      <rdf:Description rdf:about=""/>
   </rdf:RDF>
</x:xmpmeta>
                                                                                                    
                                                                                                    
                                                                                                    
                                                                                                    
                                                                                                    
                                                                                                    
                                                                                                    
                                                                                                    
                                                                                                    
                                                                                                    
                                                                                                    
                                                                                                    
                                                                                                    
                                                                                                    
                                                                                                    
                                                                                                    
                                                                                                    
                                                                                                    
                                                                                                    
                                                                                                    
                           
<?xpacket end="w"?></metadata>
<defs>
    <style>
      .cls-1 {
        fill: #fff;
        fill-rule: evenodd;
      }
    </style>
  </defs>
  <path id="comments" class="cls-1" d="M207.125,175.626h-6.247a0.625,0.625,0,1,0,0,1.249h6.247A0.625,0.625,0,1,0,207.125,175.626Zm1.249-3.748h-8.746a0.625,0.625,0,0,0,0,1.249h8.746A0.625,0.625,0,1,0,208.374,171.878ZM204,165.006c-5.52,0-10,3.916-10,8.746a8.371,8.371,0,0,0,3.748,6.821V185l4.379-2.657A11.455,11.455,0,0,0,204,182.5c5.521,0,10-3.916,10-8.746S209.522,165.006,204,165.006Zm0,16.242a10.129,10.129,0,0,1-2.111-.229l-2.941,1.768,0.039-2.9a7.244,7.244,0,0,1-3.733-6.138c0-4.14,3.916-7.5,8.746-7.5s8.746,3.357,8.746,7.5S208.832,181.248,204,181.248Z" transform="translate(-194 -165)"/>
</svg>
