<svg xmlns="http://www.w3.org/2000/svg" width="23" height="21" viewBox="0 0 23 21">
  <metadata><?xpacket begin="﻿" id="W5M0MpCehiHzreSzNTczkc9d"?>
<x:xmpmeta xmlns:x="adobe:ns:meta/" x:xmptk="Adobe XMP Core 5.6-c138 79.159824, 2016/09/14-01:09:01        ">
   <rdf:RDF xmlns:rdf="http://www.w3.org/1999/02/22-rdf-syntax-ns#">
      <rdf:Description rdf:about=""/>
   </rdf:RDF>
</x:xmpmeta>
                                                                                                    
                                                                                                    
                                                                                                    
                                                                                                    
                                                                                                    
                                                                                                    
                                                                                                    
                                                                                                    
                                                                                                    
                                                                                                    
                                                                                                    
                                                                                                    
                                                                                                    
                                                                                                    
                                                                                                    
                                                                                                    
                                                                                                    
                                                                                                    
                                                                                                    
                                                                                                    
                           
<?xpacket end="w"?></metadata>
<defs>
    <style>
      .cls-1 {
        fill: #fff;
        fill-rule: evenodd;
      }
    </style>
  </defs>
  <path id="custom-page" class="cls-1" d="M192.533,82H193.3v-0.75h-0.766a0.759,0.759,0,0,1-.767-0.75v-15a0.759,0.759,0,0,1,.767-0.75H209.4a0.758,0.758,0,0,1,.767.75v0.75h0.766V65.5A1.517,1.517,0,0,0,209.4,64H192.533A1.517,1.517,0,0,0,191,65.5v15A1.517,1.517,0,0,0,192.533,82Zm0-16.5H193.3v0.75h-0.766V65.5Zm1.533,0h0.767v0.75h-0.767V65.5Zm1.533,0h0.767v0.75H195.6V65.5Zm-1.533,18A1.517,1.517,0,0,0,195.6,85h16.864A1.517,1.517,0,0,0,214,83.5v-15a1.517,1.517,0,0,0-1.533-1.5H195.6a1.517,1.517,0,0,0-1.533,1.5v15Zm0.767-15a0.758,0.758,0,0,1,.766-0.75h16.864a0.758,0.758,0,0,1,.766.75v15a0.758,0.758,0,0,1-.766.75H195.6a0.758,0.758,0,0,1-.766-0.75v-15Zm0.766,0h0.767v0.75H195.6V68.5Zm1.533,0H197.9v0.75h-0.767V68.5Zm1.533,0h0.767v0.75h-0.767V68.5ZM195.6,70h16.864v0.75H195.6V70Zm0,1.875h3.066v0.75H195.6v-0.75Zm0,1.5h2.3v0.75h-2.3v-0.75Zm8.432,1.5a2.626,2.626,0,1,0,2.683,2.625A2.654,2.654,0,0,0,204.031,74.875Zm0,4.5a1.876,1.876,0,1,1,1.916-1.875A1.9,1.9,0,0,1,204.031,79.375Zm6.132-3A0.379,0.379,0,0,0,209.78,76h-1.013a4.783,4.783,0,0,0-.3-0.716l0.716-.7a0.371,0.371,0,0,0,0-.53l-1.626-1.591a0.39,0.39,0,0,0-.542,0l-0.716.7a5.062,5.062,0,0,0-.732-0.3V71.874a0.379,0.379,0,0,0-.383-0.375h-2.3a0.379,0.379,0,0,0-.383.375v0.991a4.971,4.971,0,0,0-.732.3l-0.716-.7a0.39,0.39,0,0,0-.542,0l-1.626,1.591a0.369,0.369,0,0,0,0,.53l0.716,0.7c-0.032.061-.063,0.123-0.092,0.185A4.655,4.655,0,0,0,199.3,76h-1.013a0.379,0.379,0,0,0-.383.375v2.25a0.379,0.379,0,0,0,.383.375H199.3a4.681,4.681,0,0,0,.3.716l-0.716.7a0.369,0.369,0,0,0,0,.53l1.626,1.591a0.39,0.39,0,0,0,.542,0l0.716-.7a4.971,4.971,0,0,0,.732.3v0.991a0.379,0.379,0,0,0,.383.375h2.3a0.379,0.379,0,0,0,.383-0.375V82.135a5.062,5.062,0,0,0,.732-0.3l0.716,0.7a0.39,0.39,0,0,0,.542,0l1.626-1.591a0.37,0.37,0,0,0,0-.53l-0.716-.7a4.783,4.783,0,0,0,.3-0.716h1.013a0.379,0.379,0,0,0,.383-0.375v-2.25ZM209.4,78.25h-0.917a0.382,0.382,0,0,0-.371.281,4.043,4.043,0,0,1-.449,1.061,0.37,0.37,0,0,0,.06.456l0.648,0.634-1.084,1.061-0.649-.635a0.39,0.39,0,0,0-.466-0.058,4.231,4.231,0,0,1-1.083.439,0.377,0.377,0,0,0-.288.363v0.9h-1.533v-0.9a0.376,0.376,0,0,0-.287-0.363,4.238,4.238,0,0,1-1.084-.439,0.39,0.39,0,0,0-.466.058l-0.648.635L199.7,80.682l0.648-.634a0.37,0.37,0,0,0,.059-0.456,4.041,4.041,0,0,1-.448-1.061,0.383,0.383,0,0,0-.371-0.281h-0.918v-1.5h0.918a0.383,0.383,0,0,0,.371-0.281,4.013,4.013,0,0,1,.249-0.687,4.086,4.086,0,0,1,.2-0.375,0.369,0.369,0,0,0-.059-0.455l-0.648-.635,1.084-1.061,0.648,0.635a0.39,0.39,0,0,0,.466.058,4.246,4.246,0,0,1,1.084-.439,0.376,0.376,0,0,0,.287-0.363v-0.9H204.8v0.9a0.377,0.377,0,0,0,.288.363,4.235,4.235,0,0,1,1.083.439,0.39,0.39,0,0,0,.466-0.058l0.649-.635,1.084,1.061-0.648.635a0.37,0.37,0,0,0-.06.456,4.043,4.043,0,0,1,.449,1.061,0.382,0.382,0,0,0,.371.281H209.4v1.5Zm0.767,4.5h2.3V83.5h-2.3v-0.75Z" transform="translate(-191 -64)"/>
</svg>
