<?xml version="1.0" encoding="utf-8"?>
<!-- Generator: Adobe Illustrator 17.0.0, SVG Export Plug-In . SVG Version: 6.00 Build 0)  -->
<!DOCTYPE svg PUBLIC "-//W3C//DTD SVG 1.1//EN" "http://www.w3.org/Graphics/SVG/1.1/DTD/svg11.dtd">
<svg version="1.1" id="Layer_1" xmlns="http://www.w3.org/2000/svg" xmlns:xlink="http://www.w3.org/1999/xlink" x="0px" y="0px"
	 width="50px" height="50px" viewBox="395.945 272.64 50 50" enable-background="new 395.945 272.64 50 50" xml:space="preserve">
<polygon fill="#FFFFFF" points="399.142,322.577 399.142,303.393 395.945,303.393 395.945,301.421 401.113,301.421 401.113,320.606 
	440.71,320.606 440.71,301.421 445.879,301.421 445.879,303.393 442.681,303.393 442.681,322.577 "/>
<path fill="#FFFFFF" d="M415.053,310.732l1.394-1.394l3.48,3.48v-9.448l-0.552-0.056c-0.851-0.086-1.702-0.246-2.528-0.473
	c-3.959-1.09-7.258-3.657-9.286-7.228c-2.029-3.571-2.546-7.717-1.455-11.677c1.832-6.651,7.923-11.296,14.813-11.296
	c1.172,0,2.345,0.136,3.496,0.404l-0.526,1.899c-0.971-0.22-1.964-0.331-2.961-0.331c-0.843,0-1.691,0.08-2.519,0.239
	c-3.512,0.672-6.552,2.672-8.56,5.631c-2.008,2.959-2.743,6.523-2.071,10.035c1.207,6.299,6.73,10.871,13.134,10.871
	c0,0,0.001,0,0.001,0c0.844,0,1.696-0.081,2.531-0.242c3.512-0.672,6.552-2.672,8.56-5.631c1.893-2.789,2.654-6.116,2.172-9.431
	l1.937-0.372c0.037,0.247,0.068,0.494,0.093,0.742c0.414,4.09-0.789,8.095-3.388,11.279c-2.599,3.184-6.282,5.165-10.371,5.58
	l-0.552,0.056v9.448l3.48-3.48l1.393,1.394l-5.859,5.859L415.053,310.732z"/>
<path fill="#FFFFFF" d="M429.215,277.494c-0.458-0.362-0.94-0.694-1.44-0.993l0.932-1.737c0.628,0.369,1.23,0.785,1.8,1.241
	L429.215,277.494z"/>
<path fill="#FFFFFF" d="M432.935,282.088c-0.259-0.523-0.552-1.028-0.876-1.513l1.588-1.169c0.409,0.604,0.775,1.238,1.095,1.893
	L432.935,282.088z"/>
<path fill="#FFFFFF" d="M419.926,298.596v-3.198h-3.197v-1.971h4.183c1.22,0,2.212-0.992,2.212-2.212
	c0-1.22-0.992-2.212-2.212-2.212c-1.776,0-3.357-1.12-3.944-2.786c-0.37-1.051-0.309-2.184,0.173-3.188
	c0.481-1.005,1.325-1.762,2.376-2.133l0.41-0.144v-3.313h1.97v3.198h3.198v1.97h-4.183c-1.22,0-2.212,0.992-2.212,2.212
	c0,1.22,0.992,2.213,2.212,2.213c1.776,0,3.357,1.12,3.944,2.786c0.37,1.051,0.309,2.184-0.172,3.188
	c-0.482,1.005-1.326,1.762-2.377,2.132l-0.41,0.144v3.313H419.926z"/>
</svg>
