<?xml version="1.0" encoding="utf-8"?>
<!-- Generator: Adobe Illustrator 17.0.0, SVG Export Plug-In . SVG Version: 6.00 Build 0)  -->
<!DOCTYPE svg PUBLIC "-//W3C//DTD SVG 1.1//EN" "http://www.w3.org/Graphics/SVG/1.1/DTD/svg11.dtd">
<svg version="1.1" id="Layer_1" xmlns="http://www.w3.org/2000/svg" xmlns:xlink="http://www.w3.org/1999/xlink" x="0px" y="0px"
	 width="50px" height="50px" viewBox="395.945 272.64 50 50" enable-background="new 395.945 272.64 50 50" xml:space="preserve">
<path fill="#FFFFFF" d="M406.626,322.64c-1.835,0-3.219-1.384-3.219-3.219v-40.143c0-1.835,1.384-3.219,3.219-3.219h2.279
	c0.571,0,0.939,0.369,0.939,0.94c0,0.571-0.369,0.939-0.939,0.939h-2.279c-0.789,0-1.34,0.551-1.34,1.34v40.143
	c0,0.789,0.551,1.34,1.34,1.34h29.632c0.789,0,1.34-0.551,1.34-1.34v-40.143c0-0.789-0.551-1.34-1.34-1.34h-7.978
	c-0.571,0-0.939-0.369-0.939-0.939v-0.2h-1.91c-1.152,0-2.247-0.63-2.789-1.606c-0.274-0.412-0.749-0.659-1.247-0.659
	c-0.494,0-0.915,0.24-1.153,0.657c-0.543,0.978-1.638,1.608-2.79,1.608h-1.91v3.82h12.737c0.571,0,0.939,0.369,0.939,0.939
	s-0.369,0.939-0.939,0.939h-13.676c-0.571,0-0.94-0.369-0.94-0.939v-5.699c0-0.571,0.369-0.939,0.94-0.939h2.849
	c0.427,0,0.83-0.178,1.167-0.514c0.566-1.109,1.633-1.765,2.822-1.765c1.171,0,2.257,0.646,2.906,1.727
	c0.128,0.259,0.528,0.553,1.083,0.553h2.849c0.571,0,0.939,0.369,0.939,0.939v0.2h7.039c0.884,0,1.699,0.328,2.295,0.924
	s0.924,1.411,0.924,2.295v40.143c0,1.835-1.384,3.219-3.219,3.219H406.626z"/>
<path fill="#FFFFFF" d="M410.456,308.443c-0.571,0-0.939-0.368-0.939-0.939s0.369-0.939,0.939-0.939h11.816
	c0.571,0,0.939,0.368,0.939,0.939s-0.369,0.939-0.939,0.939H410.456z"/>
<path fill="#FFFFFF" d="M410.456,294.977c-0.571,0-0.939-0.368-0.939-0.939s0.369-0.939,0.939-0.939h21.913
	c0.571,0,0.939,0.368,0.939,0.939s-0.369,0.939-0.939,0.939H410.456z"/>
<path fill="#FFFFFF" d="M410.456,301.839c-0.571,0-0.939-0.368-0.939-0.939s0.369-0.939,0.939-0.939h17.853
	c0.571,0,0.939,0.368,0.939,0.939s-0.369,0.939-0.939,0.939H410.456z"/>
</svg>
