<svg xmlns="http://www.w3.org/2000/svg" width="19" height="20" viewBox="0 0 19 20">
  <metadata><?xpacket begin="﻿" id="W5M0MpCehiHzreSzNTczkc9d"?>
<x:xmpmeta xmlns:x="adobe:ns:meta/" x:xmptk="Adobe XMP Core 5.6-c138 79.159824, 2016/09/14-01:09:01        ">
   <rdf:RDF xmlns:rdf="http://www.w3.org/1999/02/22-rdf-syntax-ns#">
      <rdf:Description rdf:about=""/>
   </rdf:RDF>
</x:xmpmeta>
                                                                                                    
                                                                                                    
                                                                                                    
                                                                                                    
                                                                                                    
                                                                                                    
                                                                                                    
                                                                                                    
                                                                                                    
                                                                                                    
                                                                                                    
                                                                                                    
                                                                                                    
                                                                                                    
                                                                                                    
                                                                                                    
                                                                                                    
                                                                                                    
                                                                                                    
                                                                                                    
                           
<?xpacket end="w"?></metadata>
<defs>
    <style>
      .cls-1 {
        fill: #fff;
        fill-rule: evenodd;
      }
    </style>
  </defs>
  <path id="id-verification" class="cls-1" d="M204.169,261.022h-3.7v-1.51c0-1.388,1.448-2.517,3.228-2.517a3.567,3.567,0,0,1,2.609,1.045,5.02,5.02,0,0,1,1.107-.524,4.375,4.375,0,0,0-1.636-1.129,2.334,2.334,0,0,0,1.149-1.909v-1.007c0-1.388-1.449-2.517-3.229-2.517s-3.228,1.129-3.228,2.517v1.007a2.335,2.335,0,0,0,1.148,1.909,3.538,3.538,0,0,0-2.44,3.125v2.013a0.588,0.588,0,0,0,.646.5h4.215A4.769,4.769,0,0,1,204.169,261.022Zm-2.406-7.551a2,2,0,0,1,3.874,0v1.007a2,2,0,0,1-3.874,0v-1.007Zm3.41,11.755h-8.762a0.21,0.21,0,0,1-.211-0.207V248.378a0.209,0.209,0,0,1,.211-0.206H210.99a0.209,0.209,0,0,1,.211.206v9.376a4.967,4.967,0,0,1,1.2.805V248.378A1.4,1.4,0,0,0,210.99,247H196.411A1.4,1.4,0,0,0,195,248.378v16.641a1.4,1.4,0,0,0,1.409,1.379H206.62A4.963,4.963,0,0,1,205.173,265.226Zm3.843-7.971A4.873,4.873,0,1,0,214,262.127,4.926,4.926,0,0,0,209.016,257.255Zm0,8.65a3.779,3.779,0,1,1,3.861-3.778A3.821,3.821,0,0,1,209.016,265.9Zm1.12-5.8-1.419,2.222-0.652-.638-0.953.931,1.25,1.224a0.687,0.687,0,0,0,.477.194l0.077-.005a0.667,0.667,0,0,0,.5-0.3l1.867-2.924Z" transform="translate(-195 -247)"/>
</svg>
