<svg xmlns="http://www.w3.org/2000/svg" width="22" height="22" viewBox="0 0 22 22">
  <metadata><?xpacket begin="﻿" id="W5M0MpCehiHzreSzNTczkc9d"?>
<x:xmpmeta xmlns:x="adobe:ns:meta/" x:xmptk="Adobe XMP Core 5.6-c138 79.159824, 2016/09/14-01:09:01        ">
   <rdf:RDF xmlns:rdf="http://www.w3.org/1999/02/22-rdf-syntax-ns#">
      <rdf:Description rdf:about=""/>
   </rdf:RDF>
</x:xmpmeta>
                                                                                                    
                                                                                                    
                                                                                                    
                                                                                                    
                                                                                                    
                                                                                                    
                                                                                                    
                                                                                                    
                                                                                                    
                                                                                                    
                                                                                                    
                                                                                                    
                                                                                                    
                                                                                                    
                                                                                                    
                                                                                                    
                                                                                                    
                                                                                                    
                                                                                                    
                                                                                                    
                           
<?xpacket end="w"?></metadata>
<defs>
    <style>
      .cls-1 {
        fill: #fff;
        fill-rule: evenodd;
      }
    </style>
  </defs>
  <path id="landing-page" class="cls-1" d="M195.292,102.833a0.459,0.459,0,1,1-.459.459A0.459,0.459,0,0,1,195.292,102.833Zm1.833,0a0.459,0.459,0,1,1-.458.459A0.459,0.459,0,0,1,197.125,102.833Zm1.833,0a0.459,0.459,0,1,1-.458.459A0.46,0.46,0,0,1,198.958,102.833Zm3.667,10.084H201.25v-5.042a0.458,0.458,0,0,0-.458-0.458h-2.75a0.458,0.458,0,0,0-.459.458v5.042h-1.375a0.458,0.458,0,0,0-.375.721l3.208,4.583a0.458,0.458,0,0,0,.751,0L203,113.638A0.459,0.459,0,0,0,202.625,112.917Zm-3.208,4.242-2.328-3.326h0.953a0.458,0.458,0,0,0,.458-0.458v-5.042h1.833v5.042a0.458,0.458,0,0,0,.459.458h0.953Zm5.041-7.909h5.5a0.459,0.459,0,1,0,0-.917h-5.5A0.459,0.459,0,0,0,204.458,109.25Zm0,2.75h5.5a0.459,0.459,0,1,0,0-.917h-5.5A0.459,0.459,0,0,0,204.458,112Zm10.195,4.6-0.878-.22,0.465-.776a0.457,0.457,0,0,0-.069-0.56l-1-1v-11.2A1.836,1.836,0,0,0,211.333,101h-16.5A1.835,1.835,0,0,0,193,102.833v16.5a1.836,1.836,0,0,0,1.833,1.834h11.2l1,1a0.46,0.46,0,0,0,.56.069l0.776-.465,0.22,0.878a0.458,0.458,0,0,0,.445.347h1.833a0.458,0.458,0,0,0,.444-0.347l0.22-.878,0.776,0.465a0.457,0.457,0,0,0,.56-0.069l1.3-1.3a0.457,0.457,0,0,0,.069-0.56l-0.465-.776,0.878-.22a0.458,0.458,0,0,0,.347-0.444v-1.833A0.458,0.458,0,0,0,214.653,116.6Zm-20.736-13.764a0.917,0.917,0,0,1,.916-0.916h16.5a0.917,0.917,0,0,1,.917.916v1.834H193.917v-1.834Zm11.8,17.417H194.833a0.917,0.917,0,0,1-.916-0.917v-13.75H212.25v8.132l-0.711.427-0.22-.879a0.458,0.458,0,0,0-.444-0.346h-1.833a0.458,0.458,0,0,0-.445.346l-0.22.879-0.776-.466a0.46,0.46,0,0,0-.56.069l-0.088.088h-2.5a0.459,0.459,0,0,0,0,.917h1.578l-0.291.291a0.458,0.458,0,0,0-.069.56l0.466,0.776-0.879.22a0.459,0.459,0,0,0-.347.445v1.833a0.459,0.459,0,0,0,.347.444l0.879,0.22Zm8.368-1.733-0.787.2a0.457,0.457,0,0,0-.321.293,3.119,3.119,0,0,1-.14.343,0.458,0.458,0,0,0,.019.437l0.416,0.693-0.79.79-0.693-.416a0.458,0.458,0,0,0-.437-0.019,3.119,3.119,0,0,1-.343.14,0.457,0.457,0,0,0-.293.321l-0.2.787H209.4l-0.2-.787a0.455,0.455,0,0,0-.293-0.321,3.2,3.2,0,0,1-.343-0.14,0.456,0.456,0,0,0-.436.019l-0.693.416-0.791-.79,0.416-.693a0.461,0.461,0,0,0,.02-0.437,3.119,3.119,0,0,1-.14-0.343,0.459,0.459,0,0,0-.321-0.293l-0.788-.2V117.4l0.788-.2a0.457,0.457,0,0,0,.321-0.293,3.2,3.2,0,0,1,.14-0.343,0.459,0.459,0,0,0-.02-0.436l-0.416-.693,0.791-.791,0.693,0.416a0.459,0.459,0,0,0,.436.02,3.2,3.2,0,0,1,.343-0.14,0.457,0.457,0,0,0,.293-0.321l0.2-.788h1.118l0.2,0.788a0.459,0.459,0,0,0,.293.321,3.119,3.119,0,0,1,.343.14,0.461,0.461,0,0,0,.437-0.02l0.693-.416,0.79,0.791-0.416.693a0.456,0.456,0,0,0-.019.436,3.2,3.2,0,0,1,.14.343,0.455,0.455,0,0,0,.321.293l0.787,0.2v1.118Zm-4.125-2.85a2.292,2.292,0,1,0,2.292,2.291A2.294,2.294,0,0,0,209.958,115.667Zm0,3.666a1.375,1.375,0,1,1,1.375-1.375A1.376,1.376,0,0,1,209.958,119.333Z" transform="translate(-193 -101)"/>
</svg>
