<svg xmlns="http://www.w3.org/2000/svg" width="20" height="18" viewBox="0 0 20 18">
  <metadata><?xpacket begin="﻿" id="W5M0MpCehiHzreSzNTczkc9d"?>
<x:xmpmeta xmlns:x="adobe:ns:meta/" x:xmptk="Adobe XMP Core 5.6-c138 79.159824, 2016/09/14-01:09:01        ">
   <rdf:RDF xmlns:rdf="http://www.w3.org/1999/02/22-rdf-syntax-ns#">
      <rdf:Description rdf:about=""/>
   </rdf:RDF>
</x:xmpmeta>
                                                                                                    
                                                                                                    
                                                                                                    
                                                                                                    
                                                                                                    
                                                                                                    
                                                                                                    
                                                                                                    
                                                                                                    
                                                                                                    
                                                                                                    
                                                                                                    
                                                                                                    
                                                                                                    
                                                                                                    
                                                                                                    
                                                                                                    
                                                                                                    
                                                                                                    
                                                                                                    
                           
<?xpacket end="w"?></metadata>
<defs>
    <style>
      .cls-1 {
        fill: #fff;
        fill-rule: evenodd;
      }
    </style>
  </defs>
  <path id="news" class="cls-1" d="M121.766,365.992h-4.5a0.6,0.6,0,0,0-.594.6v4.583a0.6,0.6,0,0,0,.594.6h4.5a0.6,0.6,0,0,0,.594-0.6V366.6A0.6,0.6,0,0,0,121.766,365.992Zm-0.593,4.583h-3.317V367.2h3.317v3.375ZM128.5,372.8H124a0.6,0.6,0,0,0,0,1.208h4.5A0.6,0.6,0,0,0,128.5,372.8Zm-6.734,2.268h-4.5a0.6,0.6,0,0,0,0,1.209h4.5A0.6,0.6,0,0,0,121.766,375.067Zm0-2.268h-4.5a0.6,0.6,0,0,0,0,1.208h4.5A0.6,0.6,0,0,0,121.766,372.8Zm6.734,2.268H124a0.6,0.6,0,0,0,0,1.209h4.5A0.6,0.6,0,0,0,128.5,375.067Zm0-4.537H124a0.6,0.6,0,0,0,0,1.208h4.5A0.6,0.6,0,0,0,128.5,370.53Zm4.46-7.26h-1.19v-1.211A1.05,1.05,0,0,0,130.73,361h-15.7a1.05,1.05,0,0,0-1.04,1.058v14.52A2.4,2.4,0,0,0,116.371,379h15.251A2.4,2.4,0,0,0,134,376.579V364.328A1.049,1.049,0,0,0,132.96,363.27Zm-0.148,13.309a1.2,1.2,0,0,1-1.19,1.211H116.371a1.2,1.2,0,0,1-1.19-1.211v-14.37h15.4V375.9a1.275,1.275,0,0,0,1.263,1.285,0.6,0.6,0,0,0,0-1.208,0.075,0.075,0,0,1-.075-0.077v-11.42h1.042v12.1ZM128.5,363.723H117.263a0.6,0.6,0,0,0,0,1.209H128.5A0.6,0.6,0,0,0,128.5,363.723Zm0,4.538H124a0.6,0.6,0,0,0,0,1.208h4.5A0.6,0.6,0,0,0,128.5,368.261Zm0-2.269H124a0.6,0.6,0,0,0,0,1.208h4.5A0.6,0.6,0,0,0,128.5,365.992Z" transform="translate(-114 -361)"/>
</svg>
