<svg xmlns="http://www.w3.org/2000/svg" width="19" height="19" viewBox="0 0 19 19">
  <metadata><?xpacket begin="﻿" id="W5M0MpCehiHzreSzNTczkc9d"?>
<x:xmpmeta xmlns:x="adobe:ns:meta/" x:xmptk="Adobe XMP Core 5.6-c138 79.159824, 2016/09/14-01:09:01        ">
   <rdf:RDF xmlns:rdf="http://www.w3.org/1999/02/22-rdf-syntax-ns#">
      <rdf:Description rdf:about=""/>
   </rdf:RDF>
</x:xmpmeta>
                                                                                                    
                                                                                                    
                                                                                                    
                                                                                                    
                                                                                                    
                                                                                                    
                                                                                                    
                                                                                                    
                                                                                                    
                                                                                                    
                                                                                                    
                                                                                                    
                                                                                                    
                                                                                                    
                                                                                                    
                                                                                                    
                                                                                                    
                                                                                                    
                                                                                                    
                                                                                                    
                           
<?xpacket end="w"?></metadata>
<defs>
    <style>
      .cls-1 {
        fill: #fff;
        fill-rule: evenodd;
      }
    </style>
  </defs>
  <path id="news-categories" class="cls-1" d="M200.7,305.5a0.641,0.641,0,0,0-.643-0.638h-4.774v1.276h4.774A0.641,0.641,0,0,0,200.7,305.5Zm0-3.2a0.641,0.641,0,0,0-.643-0.638h-4.774v1.276h4.774A0.641,0.641,0,0,0,200.7,302.3Zm0-3.453a0.641,0.641,0,0,0-.643-0.638h-4.774v1.275h4.774A0.641,0.641,0,0,0,200.7,298.849Zm11.176-2.453h-1.29v-1.278A1.123,1.123,0,0,0,209.456,294H195.119a1.123,1.123,0,0,0-1.126,1.117v15.326A2.567,2.567,0,0,0,196.568,313h13.854A2.568,2.568,0,0,0,213,310.444V297.512A1.122,1.122,0,0,0,211.872,296.4Zm-0.16,14.048a1.286,1.286,0,0,1-1.29,1.279H196.568a1.285,1.285,0,0,1-1.289-1.279v-1.378h-0.64a0.638,0.638,0,1,1,0-1.276h0.64v-1.648h-0.64a0.638,0.638,0,1,1,0-1.276h0.64V302.94h-0.64a0.638,0.638,0,1,1,0-1.276h0.64v-2.178h-0.64a0.638,0.638,0,1,1,0-1.275h0.64v-2.935H209.3v14.45a1.363,1.363,0,0,0,1.368,1.356,0.638,0.638,0,1,0,0-1.275,0.082,0.082,0,0,1-.082-0.081V297.671h1.13v12.773ZM200.7,308.428a0.641,0.641,0,0,0-.643-0.638h-4.774v1.276h4.774A0.641,0.641,0,0,0,200.7,308.428Zm4.13-7.912a1.943,1.943,0,1,0-1.96-1.943A1.954,1.954,0,0,0,204.826,300.516Zm0-2.942a1,1,0,1,1-1.008,1A1,1,0,0,1,204.826,297.574Zm0,3.85a1.943,1.943,0,1,0,1.96,1.943A1.954,1.954,0,0,0,204.826,301.424Zm0,2.942a1,1,0,1,1,1.008-1A1,1,0,0,1,204.826,304.366Zm0,1.852a1.943,1.943,0,1,0,1.96,1.943A1.954,1.954,0,0,0,204.826,306.218Zm0,2.942a1,1,0,1,1,1.008-1A1,1,0,0,1,204.826,309.16Z" transform="translate(-194 -294)"/>
</svg>
