<?xml version="1.0" encoding="utf-8"?>
<!-- Generator: Adobe Illustrator 17.0.0, SVG Export Plug-In . SVG Version: 6.00 Build 0)  -->
<!DOCTYPE svg PUBLIC "-//W3C//DTD SVG 1.1//EN" "http://www.w3.org/Graphics/SVG/1.1/DTD/svg11.dtd">
<svg version="1.1" id="Layer_1" xmlns="http://www.w3.org/2000/svg" xmlns:xlink="http://www.w3.org/1999/xlink" x="0px" y="0px"
	 width="50px" height="50px" viewBox="395.945 272.64 50 50" enable-background="new 395.945 272.64 50 50" xml:space="preserve">
<g>
	<g>
		<path fill="#FFFFFF" d="M412.278,316.915l7.874-5.784v4.753l1.956-0.028c6.966-0.102,13.225-4.34,15.943-10.797
			c1.041-2.479,1.499-5.073,1.362-7.714c-0.176-3.662-1.505-7.137-3.845-10.044c-0.245-0.306-0.245-0.635-0.223-0.803
			c0.022-0.167,0.105-0.481,0.42-0.713c0.226-0.166,0.457-0.201,0.611-0.201c0.338,0,0.657,0.158,0.877,0.433
			c2.311,2.886,3.747,6.317,4.154,9.923c0.299,2.673,0.076,5.309-0.662,7.83c-2.409,8.266-10.098,14.102-18.698,14.194l-1.907,0.021
			v4.715L412.278,316.915z M406.416,309.837c-0.337,0-0.653-0.154-0.866-0.423c-2.315-2.891-3.756-6.325-4.174-9.937
			c-0.306-2.647-0.083-5.279,0.662-7.824c2.42-8.256,10.111-14.093,18.701-14.195l1.905-0.022v-4.714l7.874,5.785l-7.862,5.783
			v-4.756l-1.96,0.032c-6.969,0.114-13.225,4.352-15.94,10.797c-1.042,2.462-1.5,5.058-1.362,7.714
			c0.189,3.649,1.516,7.119,3.839,10.036c0.25,0.313,0.25,0.64,0.228,0.807c-0.022,0.166-0.107,0.48-0.424,0.712
			C406.805,309.803,406.572,309.837,406.416,309.837z"/>
	</g>
</g>
</svg>
