<svg xmlns="http://www.w3.org/2000/svg" width="21" height="18" viewBox="0 0 21 18">
  <metadata><?xpacket begin="﻿" id="W5M0MpCehiHzreSzNTczkc9d"?>
<x:xmpmeta xmlns:x="adobe:ns:meta/" x:xmptk="Adobe XMP Core 5.6-c138 79.159824, 2016/09/14-01:09:01        ">
   <rdf:RDF xmlns:rdf="http://www.w3.org/1999/02/22-rdf-syntax-ns#">
      <rdf:Description rdf:about=""/>
   </rdf:RDF>
</x:xmpmeta>
                                                                                                    
                                                                                                    
                                                                                                    
                                                                                                    
                                                                                                    
                                                                                                    
                                                                                                    
                                                                                                    
                                                                                                    
                                                                                                    
                                                                                                    
                                                                                                    
                                                                                                    
                                                                                                    
                                                                                                    
                                                                                                    
                                                                                                    
                                                                                                    
                                                                                                    
                                                                                                    
                           
<?xpacket end="w"?></metadata>
<defs>
    <style>
      .cls-1 {
        fill: #fff;
        fill-rule: evenodd;
      }
    </style>
  </defs>
  <path id="settings" class="cls-1" d="M213.455,137.932H200.513V137.4A1.387,1.387,0,0,0,199.152,136h-2.113a1.387,1.387,0,0,0-1.361,1.408v0.529h-2.134a0.563,0.563,0,0,0,0,1.126h2.134v0.529A1.387,1.387,0,0,0,197.039,141h2.113a1.387,1.387,0,0,0,1.361-1.408v-0.529h12.942A0.563,0.563,0,0,0,213.455,137.932Zm-14.031,1.655a0.277,0.277,0,0,1-.272.282h-2.113a0.277,0.277,0,0,1-.272-0.282V137.4a0.277,0.277,0,0,1,.272-0.282h2.113a0.277,0.277,0,0,1,.272.282v2.184Zm14.032,4.617h-2.134v-0.529a1.387,1.387,0,0,0-1.361-1.408h-2.113a1.387,1.387,0,0,0-1.361,1.408V144.2H193.544a0.563,0.563,0,0,0,0,1.126h12.943v0.529a1.387,1.387,0,0,0,1.361,1.408h2.113a1.387,1.387,0,0,0,1.361-1.408V145.33h2.133A0.563,0.563,0,0,0,213.456,144.2Zm-3.223,1.655a0.278,0.278,0,0,1-.272.282h-2.113a0.278,0.278,0,0,1-.272-0.282v-2.184a0.277,0.277,0,0,1,.272-0.282h2.113a0.277,0.277,0,0,1,.272.282v2.184Zm3.223,5.078h-9.118v-0.529A1.387,1.387,0,0,0,202.977,149h-2.113a1.387,1.387,0,0,0-1.361,1.408v0.529h-5.959a0.563,0.563,0,0,0,0,1.126H199.5v0.529A1.387,1.387,0,0,0,200.864,154h2.113a1.387,1.387,0,0,0,1.361-1.408v-0.529h9.117A0.563,0.563,0,0,0,213.456,150.937Zm-10.207,1.655a0.278,0.278,0,0,1-.272.282h-2.113a0.278,0.278,0,0,1-.272-0.282v-2.184a0.277,0.277,0,0,1,.272-0.282h2.113a0.277,0.277,0,0,1,.272.282v2.184Z" transform="translate(-193 -136)"/>
</svg>
