<svg xmlns="http://www.w3.org/2000/svg" width="16" height="22" viewBox="0 0 16 22">
  <metadata><?xpacket begin="﻿" id="W5M0MpCehiHzreSzNTczkc9d"?>
<x:xmpmeta xmlns:x="adobe:ns:meta/" x:xmptk="Adobe XMP Core 5.6-c138 79.159824, 2016/09/14-01:09:01        ">
   <rdf:RDF xmlns:rdf="http://www.w3.org/1999/02/22-rdf-syntax-ns#">
      <rdf:Description rdf:about=""/>
   </rdf:RDF>
</x:xmpmeta>
                                                                                                    
                                                                                                    
                                                                                                    
                                                                                                    
                                                                                                    
                                                                                                    
                                                                                                    
                                                                                                    
                                                                                                    
                                                                                                    
                                                                                                    
                                                                                                    
                                                                                                    
                                                                                                    
                                                                                                    
                                                                                                    
                                                                                                    
                                                                                                    
                                                                                                    
                                                                                                    
                           
<?xpacket end="w"?></metadata>
<defs>
    <style>
      .cls-1 {
        fill: #fff;
        fill-rule: evenodd;
      }
    </style>
  </defs>
  <path id="user" class="cls-1" d="M210.178,221.328l-3.2-1.7a0.647,0.647,0,0,1-.336-0.576v-1.1c0.061-.083.125-0.174,0.19-0.272a8.637,8.637,0,0,0,.99-2.028,1.746,1.746,0,0,0,.834-1.5v-1.427a1.789,1.789,0,0,0-.336-1.043v-1.759a3.65,3.65,0,0,0-.771-2.554,5.277,5.277,0,0,0-7.073,0,3.636,3.636,0,0,0-.771,2.524v1.791a1.786,1.786,0,0,0-.336,1.042v1.427a1.76,1.76,0,0,0,.534,1.275,7.971,7.971,0,0,0,1.144,2.514v1.08a0.653,0.653,0,0,1-.315.566l-3,1.735a3.556,3.556,0,0,0-1.724,3.087v1.155c0,2.37,7.181,2.438,8,2.438s8-.068,8-2.438v-1.085A3.527,3.527,0,0,0,210.178,221.328Zm0.6,4.188c-0.269.349-2.572,1.17-6.767,1.17s-6.5-.821-6.766-1.17V224.4a2.227,2.227,0,0,1,1.081-1.936l2.994-1.735a1.978,1.978,0,0,0,.959-1.717v-1.541l-0.143-.181a6.666,6.666,0,0,1-1.087-2.4l-0.056-.26-0.211-.144a0.423,0.423,0,0,1-.182-0.347v-1.427a0.411,0.411,0,0,1,.132-0.3l0.2-.195v-2.375l0-.062a2.3,2.3,0,0,1,.471-1.558,4.184,4.184,0,0,1,5.213-.006,2.349,2.349,0,0,1,.474,1.6l0,2.4,0.2,0.2a0.408,0.408,0,0,1,.132.3v1.427a0.41,0.41,0,0,1-.278.392l-0.307.1-0.1.325a7.356,7.356,0,0,1-.913,1.956c-0.093.14-.184,0.265-0.263,0.361l-0.153.185v1.584a1.959,1.959,0,0,0,1.016,1.748l3.206,1.7a2.212,2.212,0,0,1,1.148,1.973v1.043Z" transform="translate(-196 -206)"/>
</svg>
