<?xml version="1.0" encoding="utf-8"?>
<!-- Generator: Adobe Illustrator 17.0.0, SVG Export Plug-In . SVG Version: 6.00 Build 0)  -->
<!DOCTYPE svg PUBLIC "-//W3C//DTD SVG 1.1//EN" "http://www.w3.org/Graphics/SVG/1.1/DTD/svg11.dtd">
<svg version="1.1" id="Layer_1" xmlns="http://www.w3.org/2000/svg" xmlns:xlink="http://www.w3.org/1999/xlink" x="0px" y="0px"
	 width="50px" height="50px" viewBox="395.945 272.64 50 50" enable-background="new 395.945 272.64 50 50" xml:space="preserve">
<g>
	<g>
		<path fill="#FFFFFF" d="M444.94,294.283h-1.279v-8.633c0-2.025-1.596-3.621-3.518-3.621h-0.961v-5.769
			c0-2.025-1.493-3.621-3.304-3.621c0,0-0.102,0-0.215,0l-36.474,9.379c-0.01,0-0.031,0.01-0.041,0.01
			c-1.8,0.143-3.263,1.688-3.263,3.621v33.487c0,2.025,1.596,3.621,3.518,3.621h40.739c2.025,0,3.621-1.596,3.621-3.621v-8.858
			h1.176c0.644,0,1.064-0.43,1.064-1.064v-13.859C446.004,294.712,445.472,294.283,444.94,294.283z M436.083,274.665
			c0.532,0.102,1.064,0.747,1.064,1.596v5.758H407.72L436.083,274.665L436.083,274.665z M441.637,319.137
			c0,0.849-0.644,1.596-1.493,1.596h-40.739c-0.849,0-1.493-0.747-1.493-1.596V285.65c0-0.849,0.644-1.596,1.493-1.596h40.626
			c0.849,0,1.493,0.747,1.493,1.596v8.633h-10.556c-4.48,0-7.998,3.519-7.998,7.998s3.621,7.998,7.998,7.998h10.668V319.137
			L441.637,319.137z M443.866,308.255h-12.898c-3.201,0-5.861-2.67-5.861-5.861c0-3.191,2.67-5.861,5.861-5.861h12.898V308.255z"/>
		<path fill="#FFFFFF" d="M429.792,302.496c0,0.644,0.532,1.064,1.064,1.064h0.961c0.532,0,1.064-0.43,1.064-1.064
			c0-0.644-0.532-1.064-1.064-1.064h-0.951C430.222,301.432,429.792,301.862,429.792,302.496z"/>
	</g>
</g>
</svg>
