<?xml version="1.0" standalone="no"?><!DOCTYPE svg PUBLIC "-//W3C//DTD SVG 1.1//EN" "http://www.w3.org/Graphics/SVG/1.1/DTD/svg11.dtd"><svg class="icon" height="512" viewBox="0 0 1024 1024" version="1.1" xmlns="http://www.w3.org/2000/svg"><path d="M789.473569 660.089803c-8.55484-8.550747-22.411429-8.550747-30.964222 0-8.531304 8.552793-8.531304 22.432918 0.021489 30.981618 66.180282 66.184375 102.618169 154.155962 102.618169 247.728104 0 12.102642 9.794064 21.896706 21.896706 21.896706s21.896706-9.794064 21.896706-21.896706C904.942417 833.527924 863.932398 734.546585 789.473569 660.089803zM510.805802 63.303768c-144.892995 0-262.757402 117.864408-262.757402 262.757402 0 103.34881 59.972906 192.930057 146.939607 235.81375-60.864206 18.619056-116.616998 51.970652-162.869415 98.239442-74.456782 74.432223-115.449405 173.413562-115.449405 278.685163 0 12.102642 9.794064 21.896706 21.896706 21.896706 12.102642 0 21.896706-9.794064 21.896706-21.896706 0-93.572142 36.437887-181.543729 102.618169-247.728104 63.781652-63.800072 147.869792-99.946316 237.703797-102.462626 3.327792 0.125867 6.664793 0.209778 10.022261 0.209778 144.892995 0 262.757402-117.864408 262.757402-262.757402S655.698796 63.303768 510.805802 63.303768zM514.346441 544.981159c-1.169639-0.193405-2.360767-0.318248-3.584642-0.318248-3.328815 0.001023-6.65149 0.042979-9.967002 0.124843-116.102275-5.252631-208.954009-101.350293-208.954009-218.726583 0-120.732735 98.234325-218.965014 218.965014-218.965014s218.965014 98.232279 218.965014 218.965014C729.770815 445.610964 633.44905 543.080879 514.346441 544.981159z" /></svg>