<svg xmlns="http://www.w3.org/2000/svg" width="25" height="16" viewBox="0 0 25 16">
  <metadata><?xpacket begin="﻿" id="W5M0MpCehiHzreSzNTczkc9d"?>
<x:xmpmeta xmlns:x="adobe:ns:meta/" x:xmptk="Adobe XMP Core 5.6-c138 79.159824, 2016/09/14-01:09:01        ">
   <rdf:RDF xmlns:rdf="http://www.w3.org/1999/02/22-rdf-syntax-ns#">
      <rdf:Description rdf:about=""/>
   </rdf:RDF>
</x:xmpmeta>
                                                                                                    
                                                                                                    
                                                                                                    
                                                                                                    
                                                                                                    
                                                                                                    
                                                                                                    
                                                                                                    
                                                                                                    
                                                                                                    
                                                                                                    
                                                                                                    
                                                                                                    
                                                                                                    
                                                                                                    
                                                                                                    
                                                                                                    
                                                                                                    
                                                                                                    
                                                                                                    
                           
<?xpacket end="w"?></metadata>
<defs>
    <style>
      .cls-1 {
        fill: #7c74fd;
        fill-rule: evenodd;
      }
    </style>
  </defs>
  <path id="eyes_show" class="cls-1" d="M317.829,392.889c-0.224-.307-5.545-7.515-12.34-7.515s-12.117,7.208-12.34,7.515a0.83,0.83,0,0,0,0,.977c0.223,0.307,5.544,7.515,12.34,7.515s12.116-7.208,12.34-7.515A0.833,0.833,0,0,0,317.829,392.889Zm-12.34,6.837c-5.006,0-9.342-4.785-10.625-6.349,1.282-1.565,5.608-6.347,10.625-6.347s9.34,4.783,10.624,6.348C314.832,394.944,310.505,399.726,305.489,399.726Zm0-11.316a4.968,4.968,0,1,0,4.944,4.968A4.962,4.962,0,0,0,305.489,388.41Zm0,8.28a3.312,3.312,0,1,1,3.3-3.312A3.308,3.308,0,0,1,305.489,396.69Z" transform="translate(-293 -385.375)"/>
</svg>
