<svg xmlns="http://www.w3.org/2000/svg" width="25" height="21" viewBox="0 0 25 21">
  <metadata><?xpacket begin="﻿" id="W5M0MpCehiHzreSzNTczkc9d"?>
<x:xmpmeta xmlns:x="adobe:ns:meta/" x:xmptk="Adobe XMP Core 5.6-c138 79.159824, 2016/09/14-01:09:01        ">
   <rdf:RDF xmlns:rdf="http://www.w3.org/1999/02/22-rdf-syntax-ns#">
      <rdf:Description rdf:about=""/>
   </rdf:RDF>
</x:xmpmeta>
                                                                                                    
                                                                                                    
                                                                                                    
                                                                                                    
                                                                                                    
                                                                                                    
                                                                                                    
                                                                                                    
                                                                                                    
                                                                                                    
                                                                                                    
                                                                                                    
                                                                                                    
                                                                                                    
                                                                                                    
                                                                                                    
                                                                                                    
                                                                                                    
                                                                                                    
                                                                                                    
                           
<?xpacket end="w"?></metadata>
<defs>
    <style>
      .cls-1 {
        fill: #7c74fd;
        fill-rule: evenodd;
      }
    </style>
  </defs>
  <path id="eyes_hide" class="cls-1" d="M352.829,393c-0.224-.314-5.545-7.67-12.34-7.67a10.893,10.893,0,0,0-4.417,1l1.275,1.307a8.9,8.9,0,0,1,3.142-.616c5.005,0,9.34,4.882,10.624,6.479a23.219,23.219,0,0,1-4.143,4l1.189,1.218a24.157,24.157,0,0,0,4.67-4.724A0.864,0.864,0,0,0,352.829,393Zm-7.8,2.509a5.131,5.131,0,0,0,.408-2.011,5.014,5.014,0,0,0-4.944-5.07,4.811,4.811,0,0,0-1.962.419l1.307,1.339a3.22,3.22,0,0,1,.655-0.068,3.343,3.343,0,0,1,3.3,3.38,3.447,3.447,0,0,1-.066.671Zm-13.178-12.231a0.922,0.922,0,0,0-1.326,0,0.978,0.978,0,0,0,0,1.359l3.035,3.112a23.914,23.914,0,0,0-5.407,5.25,0.863,0.863,0,0,0,0,1c0.223,0.313,5.544,7.669,12.34,7.669a11.344,11.344,0,0,0,5.264-1.411l3.378,3.463a0.92,0.92,0,0,0,1.326,0,0.978,0.978,0,0,0,0-1.359Zm5.758,8.622,4.442,4.555a3.173,3.173,0,0,1-1.558.423,3.343,3.343,0,0,1-3.3-3.38A3.381,3.381,0,0,1,337.605,391.9Zm2.884,8.076c-5.006,0-9.342-4.882-10.625-6.478a22.55,22.55,0,0,1,4.894-4.517l1.639,1.681a5.117,5.117,0,0,0-.853,2.836,5.014,5.014,0,0,0,4.945,5.07,4.816,4.816,0,0,0,2.766-.875l1.259,1.291A9.389,9.389,0,0,1,340.489,399.973Z" transform="translate(-328 -383)"/>
</svg>
